<svg width="33" height="32" viewBox="0 0 33 32" fill="none" xmlns="http://www.w3.org/2000/svg">
    <path opacity="0.4" d="M2.00001 10.6667C2.00001 10.1144 2.44773 9.66669 3.00001 9.66669H29.6667C30.2189 9.66669 30.6667 10.1144 30.6667 10.6667V17.983C30.6667 20.6104 30.6667 22.6879 30.4401 24.313C30.2068 25.9868 29.716 27.3276 28.6252 28.3795C27.5393 29.4266 26.1639 29.8931 24.4457 30.1159C22.7677 30.3334 20.6195 30.3334 17.8883 30.3334H14.7784C12.0472 30.3334 9.89892 30.3334 8.22094 30.1159C6.50281 29.8931 5.12737 29.4266 4.04155 28.3795C2.95063 27.3276 2.45992 25.9868 2.22655 24.313C1.99997 22.6879 1.99999 20.6104 2.00001 17.983V10.6667Z" fill="#F7931A"/>
    <path fill-rule="evenodd" clip-rule="evenodd" d="M12.3333 16C12.3333 15.2636 12.9303 14.6667 13.6667 14.6667H19C19.7364 14.6667 20.3333 15.2636 20.3333 16C20.3333 16.7364 19.7364 17.3333 19 17.3333H13.6667C12.9303 17.3333 12.3333 16.7364 12.3333 16Z" fill="#F7931A"/>
    <path d="M11.7034 1.66669H20.9632C22.1673 1.66666 23.1745 1.66663 24 1.75274C24.8729 1.84381 25.6621 2.04033 26.3909 2.50641C27.1197 2.9725 27.6124 3.59577 28.0357 4.33375C28.4361 5.03159 28.8235 5.92343 29.2865 6.98965L30.5661 9.93565C30.6529 10.1357 30.6816 10.3451 30.6595 10.5464C30.6001 10.0508 30.1783 9.66669 29.6667 9.66669H27.6261L26.9077 8.01263C26.4109 6.86899 26.0767 6.10388 25.7527 5.53909C25.444 5.00108 25.2013 4.75018 24.9453 4.58647C24.6895 4.42277 24.3547 4.30439 23.7183 4.23801C23.0501 4.16831 22.1853 4.16661 20.8939 4.16661H17.6667V9.66669H15V4.16661H11.7729C10.4813 4.16661 9.61653 4.16831 8.94845 4.23801C8.31204 4.30439 7.97728 4.42277 7.7213 4.58647C7.46532 4.75018 7.22266 5.00108 6.91401 5.53909C6.59 6.10388 6.25574 6.86899 5.759 8.01263L5.04057 9.66669H3.00001C2.48844 9.66669 2.06657 10.0508 2.00717 10.5464C1.98504 10.3451 2.01369 10.1357 2.10058 9.93565L3.38017 6.98966C3.84324 5.92343 4.23058 5.03159 4.63093 4.33375C5.0543 3.59577 5.54696 2.9725 6.27576 2.50641C7.00454 2.04033 7.79377 1.84381 8.66673 1.75274C9.49218 1.66663 10.4994 1.66666 11.7034 1.66669Z" fill="#F7931A"/>
</svg>
