<svg width="106" height="24" viewBox="0 0 106 24" fill="none" xmlns="http://www.w3.org/2000/svg">
<g clip-path="url(#clip0_4_6)">
<path fill-rule="evenodd" clip-rule="evenodd" d="M9 16.8C8.20435 16.8 7.44129 16.4839 6.87868 15.9213C6.31607 15.3587 6 14.5956 6 13.8V0H0V13.8C0 18.7704 4.0296 22.8 9 22.8H15.6V16.8H9ZM27 6C26.2909 6 25.5887 6.13968 24.9335 6.41105C24.2784 6.68243 23.6831 7.08019 23.1816 7.58162C22.6802 8.08306 22.2824 8.67835 22.0111 9.33351C21.7397 9.98867 21.6 10.6909 21.6 11.4C21.6 12.1091 21.7397 12.8113 22.0111 13.4665C22.2824 14.1216 22.6802 14.7169 23.1816 15.2184C23.6831 15.7198 24.2784 16.1176 24.9335 16.389C25.5887 16.6603 26.2909 16.8 27 16.8C28.4322 16.8 29.8057 16.2311 30.8184 15.2184C31.8311 14.2057 32.4 12.8322 32.4 11.4C32.4 9.96783 31.8311 8.59432 30.8184 7.58162C29.8057 6.56893 28.4322 6 27 6ZM15.6 11.4C15.6 5.1042 20.7042 0 27 0C33.2958 0 38.4 5.1042 38.4 11.4C38.4 17.6958 33.2958 22.8 27 22.8C20.7042 22.8 15.6 17.6958 15.6 11.4ZM91.8 6C90.3678 6 88.9943 6.56893 87.9816 7.58162C86.9689 8.59432 86.4 9.96783 86.4 11.4C86.4 12.8322 86.9689 14.2057 87.9816 15.2184C88.9943 16.2311 90.3678 16.8 91.8 16.8C93.2322 16.8 94.6057 16.2311 95.6184 15.2184C96.6311 14.2057 97.2 12.8322 97.2 11.4C97.2 9.96783 96.6311 8.59432 95.6184 7.58162C94.6057 6.56893 93.2322 6 91.8 6ZM80.4 11.4C80.4 5.1042 85.5042 0 91.8 0C98.0958 0 103.2 5.1042 103.2 11.4C103.2 17.6958 98.0958 22.8 91.8 22.8C85.5042 22.8 80.4 17.6958 80.4 11.4ZM51 0C44.7042 0 39.6 5.1042 39.6 11.4C39.6 17.6958 44.7042 22.8 51 22.8H67.8C68.9814 22.8 70.1208 22.62 71.1924 22.2864L74.4 24L77.8608 17.5176C78.7399 15.8674 79.1998 14.0264 79.2 12.1566V11.4C79.2 5.1042 74.0958 0 67.8 0H51ZM73.2 11.4C73.2 9.96783 72.6311 8.59432 71.6184 7.58162C70.6057 6.56893 69.2322 6 67.8 6H51C50.2909 6 49.5887 6.13968 48.9335 6.41105C48.2784 6.68243 47.6831 7.08019 47.1816 7.58162C46.6802 8.08306 46.2824 8.67835 46.0111 9.33351C45.7397 9.98867 45.6 10.6909 45.6 11.4C45.6 12.1091 45.7397 12.8113 46.0111 13.4665C46.2824 14.1216 46.6802 14.7169 47.1816 15.2184C47.6831 15.7198 48.2784 16.1176 48.9335 16.389C49.5887 16.6603 50.2909 16.8 51 16.8H67.8C69.2249 16.8 70.5921 16.2369 71.6036 15.2333C72.6151 14.2296 73.1889 12.8669 73.2 11.442V11.4Z" fill="white"/>
<path d="M105.6 1.5C105.6 1.89782 105.442 2.27936 105.161 2.56066C104.879 2.84196 104.498 3 104.1 3C103.702 3 103.321 2.84196 103.039 2.56066C102.758 2.27936 102.6 1.89782 102.6 1.5C102.6 1.10218 102.758 0.720644 103.039 0.43934C103.321 0.158035 103.702 0 104.1 0C104.498 0 104.879 0.158035 105.161 0.43934C105.442 0.720644 105.6 1.10218 105.6 1.5Z" fill="white"/>
</g>
<defs>
<clipPath id="clip0_4_6">
<rect width="105.6" height="24" fill="white"/>
</clipPath>
</defs>
</svg>
