<svg width="56" height="56" viewBox="0 0 56 56" fill="none" xmlns="http://www.w3.org/2000/svg">
    <rect width="56" height="56" rx="28" fill="#F7931A"/>
    <path opacity="0.4" d="M18.9854 26.205C19.255 25.8758 19.3898 25.7112 19.5208 25.7581C19.6517 25.805 19.6513 26.0334 19.6505 26.4902C19.6505 26.4959 19.6505 26.5017 19.6505 26.5075C19.6505 31.9432 24.057 36.3497 29.4927 36.3497C29.4985 36.3497 29.5043 36.3497 29.5101 36.3497C29.9668 36.3489 30.1952 36.3485 30.2421 36.4795C30.289 36.6105 30.1244 36.7453 29.7952 37.0149C28.4707 38.0995 26.7772 38.7502 24.9317 38.7502C20.6892 38.7502 17.25 35.311 17.25 31.0685C17.25 29.223 17.9008 27.5296 18.9854 26.205Z" fill="white"/>
    <path d="M21.25 26.0002C21.25 21.1678 25.1675 17.2502 30 17.2502C34.8325 17.2502 38.75 21.1678 38.75 26.0002C38.75 30.8327 34.8325 34.7502 30 34.7502C25.1675 34.7502 21.25 30.8327 21.25 26.0002Z" fill="white"/>
</svg>
