<svg width="33" height="32" viewBox="0 0 33 32" fill="none" xmlns="http://www.w3.org/2000/svg">
<path opacity="0.4" fill-rule="evenodd" clip-rule="evenodd" d="M25.3333 7.33335H13.3333C12.5969 7.33335 12 6.73639 12 6.00002C12 5.26365 12.5969 4.66669 13.3333 4.66669H25.3333C26.0697 4.66669 26.6666 5.26365 26.6666 6.00002C26.6666 6.73641 26.0697 7.33335 25.3333 7.33335Z" fill="#F7931A"/>
<path opacity="0.4" fill-rule="evenodd" clip-rule="evenodd" d="M11.0572 10.3905C11.5779 9.86983 12.4221 9.86983 12.9428 10.3905L21.6095 19.0572C22.1301 19.5779 22.1301 20.4221 21.6095 20.9428C21.0888 21.4635 20.2445 21.4635 19.7239 20.9428L11.0572 12.2761C10.5365 11.7554 10.5365 10.9112 11.0572 10.3905Z" fill="#F7931A"/>
<path opacity="0.4" fill-rule="evenodd" clip-rule="evenodd" d="M6.66665 10C7.40302 10 7.99998 10.597 7.99998 11.3333V26C7.99998 26.7364 7.40302 27.3333 6.66665 27.3333C5.93026 27.3333 5.33331 26.7364 5.33331 26V11.3333C5.33331 10.597 5.93027 10 6.66665 10Z" fill="#F7931A"/>
<path d="M8.59258 13.8518C11.8654 13.8518 14.5185 11.1987 14.5185 7.92592C14.5185 4.65312 11.8654 2 8.59258 2C5.31978 2 2.66666 4.65312 2.66666 7.92592C2.66666 11.1987 5.31978 13.8518 8.59258 13.8518Z" fill="#F7931A"/>
<path d="M9.99998 26.6667C9.99998 28.5076 8.50759 30 6.66665 30C4.8257 30 3.33331 28.5076 3.33331 26.6667C3.33331 24.8257 4.8257 23.3333 6.66665 23.3333C8.50759 23.3333 9.99998 24.8257 9.99998 26.6667Z" fill="#F7931A"/>
<path d="M22 24.6667C23.8409 24.6667 25.3333 23.1743 25.3333 21.3333C25.3333 19.4924 23.8409 18 22 18C20.159 18 18.6667 19.4924 18.6667 21.3333C18.6667 23.1743 20.159 24.6667 22 24.6667Z" fill="#F7931A"/>
<path d="M30.6666 6.00002C30.6666 7.84097 29.1742 9.33335 27.3333 9.33335C25.4924 9.33335 24 7.84097 24 6.00002C24 4.15907 25.4924 2.66669 27.3333 2.66669C29.1742 2.66669 30.6666 4.15907 30.6666 6.00002Z" fill="#F7931A"/>
</svg>
