<svg width="32" height="32" viewBox="0 0 32 32" fill="none" xmlns="http://www.w3.org/2000/svg">
    <path opacity="0.4" d="M1.66669 21.3333C1.66669 16.3628 5.69613 12.3333 10.6667 12.3333C15.6372 12.3333 19.6667 16.3628 19.6667 21.3333C19.6667 26.3039 15.6372 30.3333 10.6667 30.3333C5.69613 30.3333 1.66669 26.3039 1.66669 21.3333Z" fill="#F7931A"/>
    <path opacity="0.4" d="M21.3332 1.66669C26.3039 1.66669 30.3332 5.69613 30.3332 10.6667C30.3332 15.3302 26.7864 19.1651 22.2432 19.6212C21.9293 19.6528 21.7723 19.6686 21.6491 19.5791C21.5257 19.4896 21.488 19.3172 21.4127 18.9726C20.4985 14.7924 17.2075 11.5014 13.0274 10.5873C12.6827 10.5119 12.5103 10.4742 12.4209 10.3509C12.3314 10.2276 12.3472 10.0707 12.3787 9.75673C12.8349 5.21351 16.6699 1.66669 21.3332 1.66669Z" fill="#F7931A"/>
    <path fill-rule="evenodd" clip-rule="evenodd" d="M7.69933 5.65625L8.75509 6.92527C8.97101 7.18481 9.30333 7.31788 9.63871 7.27909C9.9741 7.24031 10.2673 7.03491 10.4183 6.73293L11.5611 4.44721C11.7161 4.13723 11.6995 3.76908 11.5173 3.47427C11.3351 3.17945 11.0133 3 10.6667 3C9.61662 3 8.60671 3.17971 7.66738 3.51104C4.17019 4.74457 1.66669 8.07595 1.66669 12C1.66669 12.5523 2.11441 13 2.66669 13C3.21897 13 3.66669 12.5523 3.66669 12C3.66669 9.1914 5.31474 6.77175 7.69933 5.65625Z" fill="#F7931A"/>
    <path fill-rule="evenodd" clip-rule="evenodd" d="M24.3007 26.3437L23.2449 25.0747C23.0291 24.8152 22.6967 24.6821 22.3613 24.721C22.0259 24.7597 21.7328 24.9651 21.5817 25.2671L20.4389 27.5528C20.2839 27.8628 20.3005 28.2309 20.4827 28.5257C20.6649 28.8205 20.9868 29 21.3333 29C22.3833 29 23.3933 28.8203 24.3327 28.4889C27.8299 27.2555 30.3333 23.924 30.3333 20C30.3333 19.4477 29.8856 19 29.3333 19C28.7811 19 28.3333 19.4477 28.3333 20C28.3333 22.8085 26.6853 25.2283 24.3007 26.3437Z" fill="#F7931A"/>
</svg>
