<svg width="24" height="24" viewBox="0 0 24 24" fill="none" xmlns="http://www.w3.org/2000/svg">
    <path d="M12 24C8.8174 24 5.76515 22.7357 3.51472 20.4853C1.26428 18.2348 0 15.1826 0 12C0 8.8174 1.26428 5.76515 3.51472 3.51472C5.76515 1.26428 8.8174 0 12 0C15.1826 0 18.2348 1.26428 20.4853 3.51472C22.7357 5.76515 24 8.8174 24 12C24 15.1826 22.7357 18.2348 20.4853 20.4853C18.2348 22.7357 15.1826 24 12 24ZM9.2512 21.2C8.06749 18.6889 7.38177 15.9721 7.232 13.2H2.4752C2.70878 15.0466 3.47361 16.7856 4.67678 18.2058C5.87995 19.626 7.46967 20.6662 9.2528 21.2H9.2512ZM9.6352 13.2C9.8176 16.128 10.6528 18.8752 12 21.3024C13.3825 18.8118 14.19 16.0433 14.3632 13.2H9.6352ZM21.5248 13.2H16.768C16.6177 15.9722 15.9315 18.689 14.7472 21.2C16.5303 20.6662 18.12 19.626 19.3232 18.2058C20.5264 16.7856 21.2912 15.0466 21.5248 13.2ZM2.4752 10.8H7.232C7.3824 8.0272 8.0688 5.312 9.2528 2.8C7.46937 3.33356 5.87931 4.37364 4.67584 5.79383C3.47237 7.21403 2.7073 8.9532 2.4736 10.8H2.4752ZM9.6368 10.8H14.3632C14.19 7.95669 13.3825 5.18821 12 2.6976C10.6169 5.18808 9.80893 7.95656 9.6352 10.8H9.6368ZM14.7472 2.8C15.9315 5.31101 16.6177 8.0278 16.768 10.8H21.5248C21.2912 8.95339 20.5264 7.21436 19.3232 5.79419C18.12 4.37401 16.5303 3.33383 14.7472 2.8Z" fill="#6F767E"/>
</svg>
